<svg width="51" height="51" viewBox="0 0 51 51" fill="none" xmlns="http://www.w3.org/2000/svg">
<g clip-path="url(#clip0_530_783)">
<path d="M13.25 0.5C11.5312 0.5 10.125 1.90625 10.125 3.625V47.375C10.125 49.0938 11.5312 50.5 13.25 50.5H44.5C46.2188 50.5 47.625 49.0938 47.625 47.375V13L35.125 0.5H13.25Z" fill="#E2E5E7"/>
<path d="M38.25 13H47.625L35.125 0.5V9.875C35.125 11.5938 36.5312 13 38.25 13Z" fill="#B0B7BD"/>
<path d="M47.625 22.375L38.25 13H47.625V22.375Z" fill="#CAD1D8"/>
<path d="M41.375 41.125C41.375 41.9844 40.6719 42.6875 39.8125 42.6875H5.4375C4.57812 42.6875 3.875 41.9844 3.875 41.125V25.5C3.875 24.6406 4.57812 23.9375 5.4375 23.9375H39.8125C40.6719 23.9375 41.375 24.6406 41.375 25.5V41.125Z" fill="#50BEE8"/>
<path d="M9.79048 38C9.37798 38 8.92798 37.7734 8.92798 37.225V30.1297C8.92798 29.6797 9.37798 29.3547 9.79048 29.3547H12.6514C18.3608 29.3547 18.2342 38 12.7624 38H9.79048ZM10.578 30.8781V36.475H12.6514C16.0249 36.475 16.1733 30.8781 12.6514 30.8781H10.578Z" fill="white"/>
<path d="M23.0154 38.125C20.7044 38.225 18.3044 36.6875 18.3044 33.6266C18.3044 30.5531 20.7029 29.0422 23.0154 29.0422C25.2013 29.1531 27.4873 30.6656 27.4873 33.6266C27.4873 36.5891 25.2013 38.125 23.0154 38.125ZM22.8779 30.6672C21.4779 30.6672 19.9544 31.6547 19.9544 33.6281C19.9544 35.5906 21.4794 36.5906 22.8779 36.5906C24.3154 36.5906 25.8513 35.5906 25.8513 33.6281C25.8513 31.6531 24.3154 30.6672 22.8779 30.6672Z" fill="white"/>
<path d="M28.9578 33.614C28.9578 31.2031 30.4703 29.1297 33.3437 29.1297C34.4312 29.1297 35.2937 29.4547 36.2046 30.2422C36.5421 30.5531 36.5796 31.1031 36.2421 31.4531C35.9046 31.7515 35.3921 31.7156 35.0921 31.4156C34.5812 30.8781 34.0562 30.7297 33.3437 30.7297C31.4203 30.7297 30.4968 32.0922 30.4968 33.6156C30.4968 35.1656 31.4078 36.589 33.3437 36.589C34.0562 36.589 34.7187 36.3 35.2937 35.789C35.6796 35.489 36.2171 35.6375 36.4421 35.939C36.6421 36.214 36.7406 36.6765 36.3046 37.1125C35.4296 37.9265 34.3812 38.089 33.3421 38.089C30.3203 38.089 28.9578 36.025 28.9578 33.614Z" fill="white"/>
<path d="M39.8125 42.6875H10.125V44.25H39.8125C40.6719 44.25 41.375 43.5469 41.375 42.6875V41.125C41.375 41.9844 40.6719 42.6875 39.8125 42.6875Z" fill="#CAD1D8"/>
</g>
<defs>
<clipPath id="clip0_530_783">
<rect width="50" height="50" fill="white" transform="translate(0.75 0.5)"/>
</clipPath>
</defs>
</svg>
