<svg width="51" height="51" viewBox="0 0 51 51" fill="none" xmlns="http://www.w3.org/2000/svg">
<g clip-path="url(#clip0_570_1830)">
<path d="M12.75 0.5C11.0312 0.5 9.625 1.90625 9.625 3.625V47.375C9.625 49.0938 11.0312 50.5 12.75 50.5H44C45.7188 50.5 47.125 49.0938 47.125 47.375V13L34.625 0.5H12.75Z" fill="#E2E5E7"/>
<path d="M37.75 13H47.125L34.625 0.5V9.875C34.625 11.5938 36.0312 13 37.75 13Z" fill="#B0B7BD"/>
<path d="M47.125 22.375L37.75 13H47.125V22.375Z" fill="#CAD1D8"/>
<path d="M40.875 41.125C40.875 41.9844 40.1719 42.6875 39.3125 42.6875H4.9375C4.07812 42.6875 3.375 41.9844 3.375 41.125V25.5C3.375 24.6406 4.07812 23.9375 4.9375 23.9375H39.3125C40.1719 23.9375 40.875 24.6406 40.875 25.5V41.125Z" fill="#50BEE8"/>
<path d="M14.1141 30.1047C14.1141 29.0547 15.7641 29.0547 15.7641 30.1047V35.0391C15.7641 37.0016 14.8266 38.1891 12.6656 38.1891C11.6031 38.1891 10.7172 37.9 9.94221 36.9016C9.30471 36.1391 10.5047 35.0406 11.1547 35.8391C11.6797 36.4891 12.2422 36.6391 12.7906 36.6141C13.4891 36.5891 14.1031 36.275 14.1156 35.0391V30.1047H14.1141Z" fill="white"/>
<path d="M17.9595 30.1047C17.9595 29.6922 18.2845 29.2422 18.8095 29.2422H21.6954C23.3204 29.2422 24.7829 30.3297 24.7829 32.4141C24.7829 34.3891 23.3204 35.4891 21.6954 35.4891H19.6095V37.1391C19.6095 37.6891 19.2595 38 18.8095 38C18.397 38 17.9595 37.6891 17.9595 37.1391V30.1047ZM19.6095 30.8156V33.9281H21.6954C22.5329 33.9281 23.1954 33.1891 23.1954 32.4141C23.1954 31.5406 22.5329 30.8156 21.6954 30.8156H19.6095Z" fill="white"/>
<path d="M33.7048 37.0391C32.8173 37.7766 31.7298 38.0891 30.6313 38.0891C28.0063 38.0891 26.1454 36.5906 26.1454 33.6156C26.1454 31.0937 28.1079 29.1328 30.7423 29.1328C31.7298 29.1328 32.8157 29.4687 33.5907 30.2312C34.3516 30.9797 33.2532 32.0922 32.5048 31.4312C32.0423 30.9812 31.3923 30.6437 30.7423 30.6437C29.2313 30.6437 27.7704 31.8547 27.7704 33.6156C27.7704 35.4656 28.9938 36.5906 30.6313 36.5906C31.3923 36.5906 32.0423 36.3641 32.5048 36.0281V34.4922H30.6313C29.5188 34.4922 29.6313 32.9672 30.6313 32.9672H33.1298C33.5923 32.9672 34.0157 33.3172 34.0157 33.7047V36.3656C34.0157 36.5906 33.9173 36.8 33.7048 37.0391Z" fill="white"/>
<path d="M39.3125 42.6875H9.625V44.25H39.3125C40.1719 44.25 40.875 43.5469 40.875 42.6875V41.125C40.875 41.9844 40.1719 42.6875 39.3125 42.6875Z" fill="#CAD1D8"/>
</g>
<defs>
<clipPath id="clip0_570_1830">
<rect width="50" height="50" fill="white" transform="translate(0.25 0.5)"/>
</clipPath>
</defs>
</svg>
