<svg width="51" height="51" viewBox="0 0 51 51" fill="none" xmlns="http://www.w3.org/2000/svg">
<g clip-path="url(#clip0_570_1850)">
<path d="M12.75 0.5C11.0312 0.5 9.625 1.90625 9.625 3.625V47.375C9.625 49.0938 11.0312 50.5 12.75 50.5H44C45.7188 50.5 47.125 49.0938 47.125 47.375V13L34.625 0.5H12.75Z" fill="#E2E5E7"/>
<path d="M37.75 13H47.125L34.625 0.5V9.875C34.625 11.5938 36.0312 13 37.75 13Z" fill="#B0B7BD"/>
<path d="M47.125 22.375L37.75 13H47.125V22.375Z" fill="#CAD1D8"/>
<path d="M40.875 41.125C40.875 41.9844 40.1719 42.6875 39.3125 42.6875H4.9375C4.07812 42.6875 3.375 41.9844 3.375 41.125V25.5C3.375 24.6406 4.07812 23.9375 4.9375 23.9375H39.3125C40.1719 23.9375 40.875 24.6406 40.875 25.5V41.125Z" fill="#F15642"/>
<path d="M10.186 30.1047C10.186 29.6922 10.511 29.2422 11.0345 29.2422H13.9204C15.5454 29.2422 17.0079 30.3297 17.0079 32.414C17.0079 34.389 15.5454 35.489 13.9204 35.489H11.8345V37.139C11.8345 37.689 11.4845 38 11.0345 38C10.622 38 10.186 37.689 10.186 37.139V30.1047ZM11.8345 30.8156V33.9281H13.9204C14.7579 33.9281 15.4204 33.189 15.4204 32.414C15.4204 31.5406 14.7579 30.8156 13.9204 30.8156H11.8345Z" fill="white"/>
<path d="M19.4548 38C19.0423 38 18.5923 37.775 18.5923 37.2265V30.1296C18.5923 29.6812 19.0423 29.3546 19.4548 29.3546H22.3157C28.0251 29.3546 27.9001 38 22.4282 38H19.4548ZM20.2423 30.8796V36.4765H22.3157C25.6892 36.4765 25.8392 30.8796 22.3157 30.8796H20.2423Z" fill="white"/>
<path d="M29.9251 30.9797V32.9656H33.1111C33.5611 32.9656 34.0111 33.4156 34.0111 33.8515C34.0111 34.264 33.5611 34.6015 33.1111 34.6015H29.9251V37.225C29.9251 37.6625 29.6142 37.9984 29.1767 37.9984C28.6267 37.9984 28.2908 37.6625 28.2908 37.225V30.1281C28.2908 29.6797 28.6283 29.3531 29.1767 29.3531H33.5626C34.1126 29.3531 34.4376 29.6797 34.4376 30.1281C34.4376 30.5281 34.1126 30.9781 33.5626 30.9781H29.9251V30.9797Z" fill="white"/>
<path d="M39.3125 42.6875H9.625V44.25H39.3125C40.1719 44.25 40.875 43.5469 40.875 42.6875V41.125C40.875 41.9844 40.1719 42.6875 39.3125 42.6875Z" fill="#CAD1D8"/>
</g>
<defs>
<clipPath id="clip0_570_1850">
<rect width="50" height="50" fill="white" transform="translate(0.25 0.5)"/>
</clipPath>
</defs>
</svg>
