<svg width="51" height="51" viewBox="0 0 51 51" fill="none" xmlns="http://www.w3.org/2000/svg">
<g clip-path="url(#clip0_570_1840)">
<path d="M13.25 0.5C11.5312 0.5 10.125 1.90625 10.125 3.625V47.375C10.125 49.0938 11.5312 50.5 13.25 50.5H44.5C46.2188 50.5 47.625 49.0938 47.625 47.375V13L35.125 0.5H13.25Z" fill="#E2E5E7"/>
<path d="M38.25 13H47.625L35.125 0.5V9.875C35.125 11.5938 36.5312 13 38.25 13Z" fill="#B0B7BD"/>
<path d="M47.625 22.375L38.25 13H47.625V22.375Z" fill="#CAD1D8"/>
<path d="M41.375 41.125C41.375 41.9844 40.6719 42.6875 39.8125 42.6875H5.4375C4.57812 42.6875 3.875 41.9844 3.875 41.125V25.5C3.875 24.6406 4.57812 23.9375 5.4375 23.9375H39.8125C40.6719 23.9375 41.375 24.6406 41.375 25.5V41.125Z" fill="#84BD5A"/>
<path d="M14.8452 32.3547L17.0187 29.6313C17.6687 28.7813 18.9312 29.8672 18.2187 30.6797C17.4702 31.5672 16.6827 32.5297 15.9327 33.5156L18.4812 36.6891C19.1687 37.6266 17.7952 38.525 17.1202 37.6L14.8202 34.6516L12.5593 37.6641C11.9218 38.575 10.5093 37.5516 11.2218 36.7016L13.7327 33.5156C12.9452 32.5281 12.1827 31.5672 11.4218 30.6797C10.6359 29.7422 12.0968 28.7813 12.6718 29.6578L14.8452 32.3547Z" fill="white"/>
<path d="M20.0234 30.1047C20.0234 29.6922 20.3734 29.3422 20.8109 29.3422C21.2109 29.3422 21.5484 29.6937 21.5484 30.1047V36.364H24.9469C26.1703 36.364 26.1969 38 24.9469 38H20.8125C20.375 38 20.025 37.689 20.025 37.239V30.1047H20.0234Z" fill="white"/>
<path d="M27.3155 31.2297C27.603 28.8047 31.2624 28.3687 32.9874 29.6937C33.8374 30.3797 32.9374 31.4672 32.1874 30.9172C31.2624 30.3312 29.1639 30.0562 28.9014 31.3531C28.5639 33.4031 33.9983 32.2297 33.9108 35.5531C33.8233 38.7265 29.2264 38.8 27.5014 37.3765C27.0874 37.039 27.1014 36.4906 27.3264 36.1515C27.6514 35.8281 28.0124 35.7156 28.4389 36.0656C29.4624 36.764 32.0999 37.289 32.2858 35.514C32.1249 33.6672 26.928 34.7781 27.3155 31.2297Z" fill="white"/>
<path d="M39.8125 42.6875H10.125V44.25H39.8125C40.6719 44.25 41.375 43.5469 41.375 42.6875V41.125C41.375 41.9844 40.6719 42.6875 39.8125 42.6875Z" fill="#CAD1D8"/>
</g>
<defs>
<clipPath id="clip0_570_1840">
<rect width="50" height="50" fill="white" transform="translate(0.75 0.5)"/>
</clipPath>
</defs>
</svg>
